<svg width="45" height="45" viewBox="0 0 45 45" fill="none" xmlns="http://www.w3.org/2000/svg">
<rect width="45" height="45" rx="10" fill="#B0E3AF" fill-opacity="0.69"/>
<path d="M22.5003 5.91666C30.5547 5.91666 37.0837 12.4456 37.0837 20.5C37.0837 28.5544 30.5547 35.0833 22.5003 35.0833C14.446 35.0833 7.91699 28.5544 7.91699 20.5C7.91699 12.4456 14.446 5.91666 22.5003 5.91666Z" fill="url(#paint0_linear_654_363)"/>
<path d="M27.1959 16.0812L20.6771 22.6L17.8042 19.7271C17.5969 19.5339 17.3227 19.4287 17.0393 19.4337C16.7559 19.4387 16.4856 19.5535 16.2852 19.7539C16.0848 19.9543 15.97 20.2246 15.965 20.508C15.96 20.7913 16.0652 21.0656 16.2584 21.2729L19.9042 24.9187C20.1093 25.1236 20.3873 25.2386 20.6771 25.2386C20.967 25.2386 21.245 25.1236 21.4501 24.9187L28.7417 17.6271C28.8492 17.5269 28.9354 17.4062 28.9952 17.272C29.0549 17.1379 29.0871 16.993 29.0897 16.8462C29.0923 16.6993 29.0653 16.5534 29.0102 16.4172C28.9552 16.2811 28.8734 16.1573 28.7695 16.0535C28.6656 15.9496 28.5419 15.8677 28.4057 15.8127C28.2695 15.7577 28.1237 15.7307 27.9768 15.7333C27.8299 15.7359 27.6851 15.768 27.5509 15.8278C27.4168 15.8876 27.296 15.9738 27.1959 16.0812Z" fill="url(#paint1_linear_654_363)"/>
<defs>
<linearGradient id="paint0_linear_654_363" x1="8.95824" y1="11.3854" x2="29.0876" y2="32.2979" gradientUnits="userSpaceOnUse">
<stop stop-color="#52D17C"/>
<stop offset="1" stop-color="#22918B"/>
</linearGradient>
<linearGradient id="paint1_linear_654_363" x1="18.3992" y1="16.7273" x2="20.5765" y2="27.3731" gradientUnits="userSpaceOnUse">
<stop stop-color="white"/>
<stop offset="1" stop-color="#E3FFD9"/>
</linearGradient>
</defs>
</svg>
