<svg width="45" height="45" viewBox="0 0 45 45" fill="none" xmlns="http://www.w3.org/2000/svg">
<rect width="45" height="45" rx="10" fill="#E0AFE3" fill-opacity="0.69"/>
<path d="M7.03674 36.7067C7.65744 37.3793 10.2141 36.2063 12.2321 35.2657C13.7442 34.5629 19.7953 32.0801 22.8031 30.7922C23.6153 30.445 24.7965 29.991 25.6469 28.8727C26.4016 27.8774 28.4031 23.65 24.3727 19.368C20.282 15.0203 16.0684 16.2207 14.4934 17.3364C13.5664 17.9926 12.8117 19.4719 12.4727 20.2239C11.0399 23.4012 8.99729 29.2227 8.16604 31.5114C7.55627 33.1985 6.4215 36.0395 7.03674 36.7067Z" fill="#FFC107"/>
<path d="M12.0687 21.1808C12.107 21.6566 12.2027 22.4305 12.5309 23.9207C12.7551 24.9433 13.1215 26.0152 13.4195 26.7234C14.3137 28.8535 15.5687 29.7121 16.8402 30.4012C19.0004 31.5715 20.4688 31.7902 20.4688 31.7902L18.7078 32.5094C18.7078 32.5094 17.6414 32.2879 16.1867 31.5715C14.8004 30.8879 13.3566 29.7312 12.3012 27.4672C11.8445 26.4855 11.5793 25.534 11.4262 24.7793C11.2375 23.8441 11.2074 23.3137 11.2074 23.3137L12.0687 21.1808ZM9.90586 26.7262C9.90586 26.7262 10.1246 28.5008 11.5902 30.7402C13.3074 33.3598 15.7055 33.7891 15.7055 33.7891L14.1113 34.4453C14.1113 34.4453 12.3313 33.9012 10.6387 31.5906C9.5832 30.1496 9.28789 28.4269 9.28789 28.4269L9.90586 26.7262ZM8.38828 30.9316C8.38828 30.9316 8.7875 32.4629 9.6625 33.6058C10.7043 34.9703 12.0305 35.3668 12.0305 35.3668L10.8082 35.9082C10.8082 35.9082 9.88125 35.7141 8.8668 34.4289C8.0957 33.4527 7.87695 32.3316 7.87695 32.3316L8.38828 30.9316Z" fill="#FF8F00"/>
<path opacity="0.44" d="M7.7233 34.8199C7.66861 34.6969 7.66861 34.5574 7.72603 34.4371L14.6905 19.9941L15.8362 24.3008L8.50806 34.8855C8.31119 35.1809 7.86822 35.1426 7.7233 34.8199Z" fill="#FFFDE7"/>
<path d="M16.3884 25.7472C19.6423 29.5535 23.3474 29.0777 24.5806 28.1152C25.8165 27.15 26.7927 23.8332 23.5525 20.0898C20.1564 16.1687 16.3118 17.2871 15.4232 18.1347C14.5345 18.9824 13.4025 22.2554 16.3884 25.7472Z" fill="url(#paint0_linear_654_361)"/>
<path d="M27.5639 27.3141C26.3771 26.3188 25.7455 26.4965 24.8979 26.8492C23.8041 27.3031 22.0842 27.6395 19.749 26.8492L20.4518 25.1567C21.8381 25.6242 22.8416 25.3973 23.7084 24.886C24.824 24.2297 26.3498 23.3301 28.7232 25.3235C29.7131 26.1547 30.7275 26.707 31.4713 26.4555C32.0127 26.275 32.2998 25.4684 32.4447 24.8258C32.4584 24.7684 32.4803 24.6043 32.4967 24.4594C32.6279 23.4559 32.8467 21.2902 34.46 20.1828C36.1854 18.9988 37.9982 18.9988 37.9982 18.9988L38.3264 22.2582C37.4924 22.1352 36.9127 22.3047 36.4232 22.5754C34.5803 23.6008 36.1854 27.5383 33.317 28.8617C30.558 30.1442 28.3021 27.932 27.5639 27.3141Z" fill="#03A9F4"/>
<path d="M17.4144 23.1578L16.2277 22.0941C18.4069 19.6605 17.8327 17.8723 17.4144 16.5707C17.3296 16.3082 17.2503 16.0594 17.1984 15.8215C17.0124 14.9793 16.9741 14.2465 17.0316 13.6066C16.1948 12.5648 15.8257 11.4738 15.8011 11.4C15.2925 9.86055 15.6753 8.35938 16.553 6.95117C18.3277 4.09375 21.5405 4.09375 21.5405 4.09375L22.6124 6.96211C21.7976 6.9293 19.1261 6.97031 18.3058 8.26367C17.2694 9.89336 17.9503 10.8996 17.9995 11.0145C18.1991 10.7547 18.4015 10.5469 18.5819 10.3855C19.8917 9.22344 21.0292 9.05664 21.7538 9.12227C22.5687 9.19609 23.3069 9.60625 23.8347 10.2789C24.4116 11.0172 24.6495 11.977 24.4663 12.8492C24.2886 13.6996 23.7226 14.4187 22.8722 14.8754C21.3874 15.6738 20.1515 15.5645 19.323 15.2883C19.3284 15.3074 19.3312 15.3293 19.3366 15.3484C19.3667 15.4852 19.4269 15.6766 19.498 15.898C19.9819 17.3965 20.8816 19.7754 17.4144 23.1578ZM19.4241 12.8957C19.5827 13.0105 19.7495 13.1062 19.9218 13.1746C20.496 13.4043 21.1222 13.3277 21.8331 12.9449C22.2515 12.7207 22.3007 12.4801 22.3171 12.4008C22.3663 12.1629 22.2843 11.8594 22.1066 11.6324C21.9507 11.4328 21.7702 11.3289 21.5542 11.307C21.1441 11.2715 20.589 11.5312 20.0339 12.0262C19.7687 12.2641 19.5663 12.5566 19.4241 12.8957Z" fill="#F44336"/>
<path d="M22.1639 23.6035L20.4658 23.557C20.4658 23.557 21.2725 19.0016 23.8838 18.2359C24.3732 18.0938 24.9092 17.9488 25.4479 17.8695C25.7678 17.8203 26.2736 17.7465 26.5225 17.6535C26.5799 17.2242 26.3994 16.6774 26.1971 16.0567C26.0385 15.5754 25.8744 15.0805 25.7869 14.5391C25.6174 13.4836 25.899 12.5512 26.5799 11.9086C27.4111 11.1293 28.7537 10.8805 30.2686 11.225C31.1326 11.4219 31.7697 11.8457 32.3303 12.2176C33.1314 12.7508 33.599 13.0215 34.5779 12.3625C35.7619 11.5641 34.2143 8.43868 33.3912 6.634L36.4619 5.35431C36.8748 6.25665 38.8682 10.8996 37.5529 13.5492C37.11 14.4406 36.3471 15.0313 35.3463 15.2527C33.1697 15.7395 31.8955 14.8918 30.9658 14.2738C30.5256 13.9813 30.14 13.7516 29.7217 13.6313C26.815 12.8027 30.8729 17.0793 28.9725 19.0016C27.8322 20.1527 25.0459 20.4563 24.8654 20.5C23.0717 20.932 22.1639 23.6035 22.1639 23.6035Z" fill="#F48FB1"/>
<path d="M17.0289 13.6066C16.977 14.2082 16.9524 14.5664 17.1082 15.3484C17.8602 15.9008 19.4981 15.9008 19.4981 15.9008C19.427 15.6793 19.3641 15.4879 19.3367 15.3512C19.3313 15.332 19.3285 15.3101 19.3231 15.291C17.6578 14.4598 17.0289 13.6066 17.0289 13.6066Z" fill="#C92B27"/>
<path d="M13.6213 16.3L10.7939 14.9136L12.2021 12.8793L14.4197 14.3476L13.6213 16.3Z" fill="#FFC107"/>
<path d="M9.4541 12.4609C8.01035 12.2668 6.53926 11.0418 6.37793 10.9024L7.79707 9.23712C8.22637 9.60079 9.13691 10.2106 9.74668 10.2926L9.4541 12.4609Z" fill="#FB8C00"/>
<path d="M12.0029 8.81603L9.9248 8.13517C10.1627 7.40782 10.2256 6.62306 10.1025 5.86564L12.2627 5.51837C12.4404 6.61759 12.3502 7.75782 12.0029 8.81603Z" fill="#03A9F4"/>
<path d="M24.9805 7.19042L27.1174 6.72284L27.7345 9.54362L25.5976 10.0112L24.9805 7.19042Z" fill="#FB8C00"/>
<path d="M30.2822 7.85901L28.7783 6.27034C29.5658 5.52385 29.7463 4.54768 29.7463 4.53674L31.9064 4.88948C31.8791 5.06174 31.6029 6.6094 30.2822 7.85901Z" fill="#FFC107"/>
<path d="M31.1172 16.2836L33.0277 15.6864L33.6801 17.7744L31.7696 18.3716L31.1172 16.2836Z" fill="#FB8C00"/>
<path d="M31.6738 33.9067L29.5 33.6496C29.593 32.8758 29.016 31.927 28.8574 31.7164L30.6074 30.4039C30.7387 30.5762 31.8789 32.1539 31.6738 33.9067Z" fill="#F44336"/>
<path d="M37.9133 31.134C37.0957 31.011 36.259 30.9617 35.4332 30.9918L35.3594 28.8043C36.3191 28.7715 37.2898 28.8262 38.2387 28.9711L37.9133 31.134Z" fill="#FB8C00"/>
<path d="M34.9727 34.1451L36.5094 32.5884L38.6244 34.6769L37.0877 36.2333L34.9727 34.1451Z" fill="#F48FB1"/>
<path d="M30.4575 20.3179L32.038 22.125L30.2309 23.7055L28.6504 21.8983L30.4575 20.3179Z" fill="#F44336"/>
<defs>
<linearGradient id="paint0_linear_654_361" x1="25.3391" y1="19.9091" x2="17.1997" y2="24.7927" gradientUnits="userSpaceOnUse">
<stop offset="0.024" stop-color="#8F4700"/>
<stop offset="1" stop-color="#703E2D"/>
</linearGradient>
</defs>
</svg>
