<svg width="31" height="8" viewBox="0 0 31 8" fill="none" xmlns="http://www.w3.org/2000/svg">
<path d="M15.1817 9.38186e-08C14.7047 8.37683e-08 14.2325 0.0939353 13.7919 0.276443C13.3513 0.45895 12.9509 0.726456 12.6137 1.06369C12.2765 1.40092 12.009 1.80126 11.8264 2.24188C11.6439 2.68249 11.55 3.15474 11.55 3.63165C11.55 4.10857 11.6439 4.58081 11.8264 5.02142C12.009 5.46203 12.2765 5.86238 12.6137 6.19961C12.9509 6.53684 13.3513 6.80435 13.7919 6.98686C14.2325 7.16936 14.7047 7.2633 15.1817 7.2633C16.1448 7.26308 17.0685 6.88025 17.7494 6.19903C18.4303 5.51781 18.8127 4.594 18.8125 3.63082C18.8123 2.66765 18.4294 1.74401 17.7482 1.0631C17.067 0.38219 16.1432 -0.000218681 15.18 9.38186e-08H15.1817ZM3.63165 9.38186e-08C3.15473 8.37683e-08 2.68249 0.0939353 2.24188 0.276443C1.80127 0.45895 1.40092 0.726456 1.06369 1.06369C0.726456 1.40092 0.45895 1.80126 0.276443 2.24188C0.0939354 2.68249 0 3.15474 0 3.63165C0 4.10857 0.0939354 4.58081 0.276443 5.02142C0.45895 5.46203 0.726456 5.86238 1.06369 6.19961C1.40092 6.53684 1.80127 6.80435 2.24188 6.98686C2.68249 7.16936 3.15473 7.2633 3.63165 7.2633C4.59482 7.26308 5.51846 6.88025 6.19937 6.19903C6.88028 5.51781 7.26269 4.594 7.26247 3.63082C7.26226 2.66765 6.87943 1.74401 6.19821 1.0631C5.51698 0.38219 4.59482 -0.000218681 3.63165 9.38186e-08ZM26.7316 9.38186e-08C26.2547 8.37683e-08 25.7825 0.0939353 25.3419 0.276443C24.9013 0.45895 24.5009 0.726456 24.1637 1.06369C23.8265 1.40092 23.5589 1.80126 23.3764 2.24188C23.1939 2.68249 23.1 3.15474 23.1 3.63165C23.1 4.10857 23.1939 4.58081 23.3764 5.02142C23.5589 5.46203 23.8265 5.86238 24.1637 6.19961C24.5009 6.53684 24.9013 6.80435 25.3419 6.98686C25.7825 7.16936 26.2547 7.2633 26.7316 7.2633C27.6948 7.26308 28.6185 6.88025 29.2994 6.19903C29.9803 5.51781 30.3627 4.594 30.3625 3.63082C30.3623 2.66765 29.9794 1.74401 29.2982 1.0631C28.617 0.38219 27.6948 -0.000218681 26.7316 9.38186e-08Z" fill="black"/>
</svg>
