<svg width="25" height="27" viewBox="0 0 25 27" fill="none" xmlns="http://www.w3.org/2000/svg">
<path d="M24.2179 19.9219C23.4516 18.5938 22.3121 14.8923 22.3121 10.0938C22.3121 7.41672 21.2486 4.84934 19.3557 2.95639C17.4627 1.06345 14.8953 0 12.2183 0C9.54129 0 6.9739 1.06345 5.08096 2.95639C3.18801 4.84934 2.12456 7.41672 2.12456 10.0938C2.12456 14.8923 0.983706 18.5938 0.217377 19.9152C0.0760213 20.1574 0.00104308 20.4325 1.08049e-05 20.7129C-0.00102147 20.9933 0.071929 21.2689 0.211498 21.5121C0.351068 21.7553 0.552316 21.9573 0.794931 22.0979C1.03755 22.2384 1.31294 22.3124 1.59331 22.3125H7.46761C7.60018 23.4796 8.15774 24.5571 9.03395 25.3394C9.91016 26.1217 11.0437 26.5541 12.2183 26.5541C13.3929 26.5541 14.5265 26.1217 15.4027 25.3394C16.2789 24.5571 16.8365 23.4796 16.969 22.3125H22.8433C23.1226 22.3115 23.3967 22.2372 23.6382 22.0969C23.8797 21.9566 24.0801 21.7553 24.2193 21.5132C24.3585 21.2711 24.4317 20.9966 24.4314 20.7173C24.4312 20.4381 24.3576 20.1637 24.2179 19.9219ZM12.2183 25.5C11.3241 25.4999 10.46 25.1776 9.78405 24.5922C9.10816 24.0068 8.66582 23.1975 8.53808 22.3125H15.8986C15.7708 23.1975 15.3285 24.0068 14.6526 24.5922C13.9767 25.1776 13.1125 25.4999 12.2183 25.5ZM23.3015 20.9844C23.2561 21.0655 23.1898 21.1329 23.1094 21.1797C23.029 21.2264 22.9376 21.2507 22.8446 21.25H1.59331C1.50036 21.2507 1.40892 21.2264 1.32856 21.1797C1.2482 21.1329 1.18185 21.0655 1.13644 20.9844C1.08981 20.9036 1.06527 20.812 1.06527 20.7188C1.06527 20.6255 1.08981 20.5339 1.13644 20.4531C2.12457 18.7491 3.18707 14.7847 3.18707 10.0938C3.18707 7.69851 4.13857 5.40138 5.83226 3.70769C7.52594 2.014 9.82308 1.0625 12.2183 1.0625C14.6136 1.0625 16.9107 2.014 18.6044 3.70769C20.2981 5.40138 21.2496 7.69851 21.2496 10.0938C21.2496 14.7834 22.3121 18.7491 23.3002 20.4531C23.347 20.5338 23.3718 20.6253 23.372 20.7186C23.3723 20.8118 23.3479 20.9035 23.3015 20.9844Z" fill="currentColor"/>
</svg>
